<svg xmlns="http://www.w3.org/2000/svg" width="375" viewBox="0 0 375 375" height="375" version="1.0"><defs><clipPath id="a"><path d="M 12.40625 326 L 97 326 L 97 339 L 12.40625 339 Z M 12.40625 326"/></clipPath><clipPath id="b"><path d="M 12.40625 302 L 97 302 L 97 315 L 12.40625 315 Z M 12.40625 302"/></clipPath><clipPath id="c"><path d="M 12.40625 350 L 97 350 L 97 362.65625 L 12.40625 362.65625 Z M 12.40625 350"/></clipPath><clipPath id="d"><path d="M 133 350 L 218 350 L 218 362.65625 L 133 362.65625 Z M 133 350"/></clipPath><clipPath id="e"><path d="M 253 350 L 339 350 L 339 362.65625 L 253 362.65625 Z M 253 350"/></clipPath><clipPath id="f"><path d="M 12.40625 18 L 146 18 L 146 152 L 12.40625 152 Z M 12.40625 18"/></clipPath><clipPath id="g"><path d="M 14 12.40625 L 362.65625 12.40625 L 362.65625 252 L 14 252 Z M 14 12.40625"/></clipPath></defs><g clip-path="url(#a)"><path d="M 12.40625 338.5 L 96.949219 338.5 L 96.949219 326.421875 L 12.40625 326.421875 L 12.40625 338.5"/></g><g clip-path="url(#b)"><path d="M 12.40625 314.347656 L 96.949219 314.347656 L 96.949219 302.269531 L 12.40625 302.269531 L 12.40625 314.347656"/></g><g clip-path="url(#c)"><path d="M 12.40625 362.65625 L 96.949219 362.65625 L 96.949219 350.578125 L 12.40625 350.578125 L 12.40625 362.65625"/></g><path d="M 133.183594 314.347656 L 217.726562 314.347656 L 217.726562 302.269531 L 133.183594 302.269531 L 133.183594 314.347656"/><path d="M 133.183594 338.5 L 217.726562 338.5 L 217.726562 326.421875 L 133.183594 326.421875 L 133.183594 338.5"/><g clip-path="url(#d)"><path d="M 133.183594 350.578125 L 133.183594 362.65625 L 217.726562 362.65625 L 217.726562 350.578125 L 133.183594 350.578125"/></g><path d="M 133.183594 290.191406 L 217.726562 290.191406 L 217.726562 278.113281 L 133.183594 278.113281 L 133.183594 290.191406"/><path d="M 133.183594 266.035156 L 217.726562 266.035156 L 217.726562 253.957031 L 133.183594 253.957031 L 133.183594 266.035156"/><path d="M 253.957031 338.5 L 338.5 338.5 L 338.5 326.421875 L 253.957031 326.421875 L 253.957031 338.5"/><g clip-path="url(#e)"><path d="M 253.957031 362.65625 L 338.5 362.65625 L 338.5 350.578125 L 253.957031 350.578125 L 253.957031 362.65625"/></g><path d="M 253.957031 314.347656 L 338.5 314.347656 L 338.5 302.269531 L 253.957031 302.269531 L 253.957031 314.347656"/><path d="M 253.957031 253.957031 L 253.957031 266.035156 L 338.5 266.035156 L 338.5 253.957031 L 253.957031 253.957031"/><path d="M 253.957031 290.191406 L 338.5 290.191406 L 338.5 278.113281 L 253.957031 278.113281 L 253.957031 290.191406"/><path d="M 253.957031 241.878906 L 338.5 241.878906 L 338.5 229.804688 L 253.957031 229.804688 L 253.957031 241.878906"/><path d="M 253.957031 217.726562 L 338.5 217.726562 L 338.5 205.648438 L 253.957031 205.648438 L 253.957031 217.726562"/><g clip-path="url(#f)"><path d="M 24.484375 78.832031 L 36.5625 78.832031 L 36.5625 90.910156 L 24.484375 90.910156 Z M 78.832031 90.910156 C 65.503906 90.910156 54.679688 80.082031 54.679688 66.753906 C 54.679688 55.527344 62.414062 46.164062 72.792969 43.449219 L 72.792969 30.523438 L 84.871094 30.523438 L 84.871094 43.449219 C 95.25 46.164062 102.988281 55.527344 102.988281 66.753906 L 90.910156 66.753906 C 90.910156 60.101562 85.484375 54.679688 78.832031 54.679688 C 72.179688 54.679688 66.753906 60.101562 66.753906 66.753906 C 66.753906 73.40625 72.179688 78.832031 78.832031 78.832031 C 92.160156 78.832031 102.988281 89.660156 102.988281 102.988281 C 102.988281 114.214844 95.25 123.582031 84.871094 126.292969 L 84.871094 139.222656 L 72.792969 139.222656 L 72.792969 126.292969 C 62.414062 123.582031 54.679688 114.214844 54.679688 102.988281 L 66.753906 102.988281 C 66.753906 109.640625 72.179688 115.066406 78.832031 115.066406 C 85.484375 115.066406 90.910156 109.640625 90.910156 102.988281 C 90.910156 96.335938 85.484375 90.910156 78.832031 90.910156 Z M 121.105469 78.832031 L 133.183594 78.832031 L 133.183594 90.910156 L 121.105469 90.910156 Z M 78.832031 151.296875 C 115.464844 151.296875 145.257812 121.503906 145.257812 84.871094 C 145.257812 48.238281 115.464844 18.445312 78.832031 18.445312 C 42.199219 18.445312 12.40625 48.238281 12.40625 84.871094 C 12.40625 121.503906 42.199219 151.296875 78.832031 151.296875"/></g><g clip-path="url(#g)"><path d="M 284.152344 12.40625 C 280.824219 12.40625 278.113281 15.117188 278.113281 18.445312 C 278.113281 21.769531 280.824219 24.484375 284.152344 24.484375 L 341 24.484375 L 224.636719 140.847656 L 175.855469 110.347656 L 14.742188 236.902344 L 25.570312 251.386719 L 174.839844 131.980469 L 228.765625 161.914062 L 350.578125 40.101562 L 350.578125 90.910156 C 350.578125 94.238281 353.292969 96.949219 356.617188 96.949219 C 359.945312 96.949219 362.65625 94.238281 362.65625 90.910156 L 362.65625 12.40625 L 284.152344 12.40625"/></g></svg>